<?xml version="1.0" encoding="UTF-8"?>
<svg xmlns="http://www.w3.org/2000/svg" viewBox="0 0 1920 1080">
  <defs>
    <style>
      .cls-1 {
        fill: #93c8d0;
      }

      .cls-2 {
        fill: #0e1d3f;
      }

      .cls-3 {
        fill: none;
      }

      .cls-4 {
        fill: #f3c877;
      }
    </style>
  </defs>
  <g id="Color">
    <path class="cls-3" d="M861.45,245.66c-17.43,29.07-24.15,64.4-18.6,97.84.9,5.4,2.11,10.79,4.23,15.84,6.77,16.14,22.34,27.36,39.04,32.62,4.57,1.44,9.28,2.51,13.69,4.39,2.33.99,4.58,2.21,7,2.98,3.26,1.03,6.72,1.2,10.13,1.37,4.53.22,9.05.43,13.58.65,7.77.37,15.54.74,23.31.56,7.92-.18,15.81-.93,23.7-1.68,9.43-.9,18.86-1.8,28.3-2.71,6.28-.6,12.64-1.23,18.51-3.53,10.41-4.08,18.16-12.98,24.43-22.24s11.57-19.29,19.25-27.42c5.59-5.92,12.51-10.95,15.85-18.38,1.61-3.57,2.28-7.48,2.86-11.36,1.8-12.09,2.85-24.3,3.13-36.52.22-9.59-2.2-19.15-5.22-28.25-.56-1.69-1.17-3.37-1.89-5-3.12-7.09-8.37-13.23-14.88-17.43"/>
    <path class="cls-3" d="M1043.01,246.9c2.57-1.22,3.48-4.33,4.87-6.82.96-1.73,2.25-3.26,3.52-4.78.74-.88,1.49-1.77,2.38-2.51,2.11-1.76,4.84-2.54,7.52-3.15,1.86-.42,3.81-.8,5.33-1.96.79.06,1.03-.4,1.74-.74.79-.38,1.77.16,2.21.92s.48,1.67.57,2.55c.36,3.58,1.62,7.07,3.63,10.06,1.18,1.76,2.62,3.34,4.02,4.94,2.78,3.18,5.52,6.57,6.72,10.62.67,2.27.84,4.67,1.44,6.96.48,1.83,1.23,3.57,1.84,5.36,2.54,7.35,2.8,15.26,2.9,23.03.14,10.25-.23,21.32-6.49,29.43-2.37,3.07-5.53,5.62-7.03,9.19-1.21,2.89-1.27,6.29-3.14,8.8-4.1,5.5-9.35,11.28-14.04,16.28s-9.19,10.6-10.68,17.3"/>
    <path class="cls-1" d="M1022.68,395.81c1.08.73,2.52.19,3.7-.37,2.48-1.17,4.95-2.33,7.43-3.5,1.39-.65,2.78-1.31,4.04-2.19,1.87-1.3,3.39-3.05,4.88-4.78,2.75-3.18,5.53-6.41,7.45-10.15,3.21-6.24,4.35-13.08,8.6-18.67s9.31-10.5,14.36-15.39c6.7-6.49,11.78-14.55,13.69-23.68.76-3.63,1.04-7.33,1.33-11.03.28-3.61.55-7.22.83-10.84-.52-.34-.66-.22-.72-.84-.96-8.98-1.28-18.02-.98-27.04.1-2.83.25-5.68-.08-8.49-.48-4.04-1.95-7.88-3.42-11.68-1.07-2.78-2.19-5.63-4.22-7.79-1.42-1.51-3.24-2.64-4.38-4.36-1.07-1.61-1.44-3.6-2.48-5.23s-3.29-2.83-4.89-1.75c-8.79,5.96-16.81,11.61-24.7,18.74-4.14,3.75-8.7,7.03-13.56,9.78-2.87,1.62-5.86,3.07-9.02,4-4.74,1.4-9.75,1.63-14.69,1.57-20.29-.25-40.2-5.17-60.31-7.88-3.37-.45-6.96-.82-10.04.63-5.26,2.47-11.55,5.21-17.26,6.32-3.16.62-6.41.86-9.5,1.77-3.82,1.13-7.26,3.24-10.94,4.77s-7.88,2.43-11.62,1.04c-2.57-.96-4.63-2.9-6.61-4.79-2.69-2.57-5.4-5.15-7.57-8.18-.77-1.08-1.48-2.22-2.42-3.17-2.35-2.38-6.07-3.44-7.59-6.42-5.72,3.12-5.47,10.53-8.03,16.52-1.97,4.6-5.53,8.68-6.01,13.66-.14,1.46,0,2.95-.32,4.38-.34,1.55-1.18,2.94-1.89,4.36-2.37,4.73-3.41,10.01-4.28,15.23-1.44,8.66-2.5,17.38-3.44,26.1-.17,1.58-.33,3.23.27,4.7.54,1.34,1.63,2.35,2.53,3.47,4.59,5.68,4.29,13.78,6.84,20.62,1.83,4.91,5.12,9.12,8.49,13.13,9.96,11.83,21.67,22.98,36.35,27.84,1.89.63,4.23,1.05,5.65-.34-.37.44-.76,2.06-.33,2.44,3.84,3.42,9.25,4.52,14.39,4.5s10.23-1.01,15.37-1.18c3.11-.1,6.22.1,9.33.26,17.25.87,34.58.38,51.75-1.48,2.71-.29,5.42-.62,8.1-1.14,5.47-1.07,10.86-2.95,16.43-2.77,2.88.09,7.13.96,9.49-.7Z"/>
    <path class="cls-1" d="M703.78,420.33c-1.95-.04-3.92-.08-5.83.34s-3.77,1.34-4.94,2.9c-.54.71-.92,1.54-1.49,2.22-.35.41-.76.77-1.18,1.11-2.14,1.75-4.52,3.2-7.06,4.31-6.87,3-13.57,5.35-20.43,8.38-5.77,2.54-10.78,6.55-16.47,9.25-2.33,1.1-4.8,2.01-6.8,3.65-1.55,1.28-2.73,2.94-3.89,4.58-1.76,2.48-3.51,4.96-5.27,7.45-1.43,2.02-2.9,4.13-3.36,6.56-.88,4.67,2.28,9.35,6.39,11.73s8.98,2.98,13.7,3.53c4.05.47,8.09.94,12.14,1.41,2.18,3.92,4.36,7.84,6.53,11.75.73,1.3,1.54,2.69,2.9,3.3,1.03.46,2.21.39,3.33.27,6.43-.68,12.71-2.71,18.33-5.91,1.74-.99,3.47-2.11,5.43-2.48,1.44-.27,2.92-.12,4.36-.34,1.91-.29,3.67-1.22,5.3-2.25,4.41-2.79,8.2-6.44,11.96-10.06,2.34-2.25,4.72-4.56,6.17-7.47,2.94-5.92,1.44-12.98-.13-19.41-.86-3.53-1.75-7.13-3.74-10.17-1.51-2.3-3.6-4.19-4.96-6.58-1.54-2.7-2.05-5.86-3.11-8.78-1.58-4.38-4.21-6.49-7.91-9.31Z"/>
    <path class="cls-3" d="M1146.65,280.51c4.21-4.61,8.43-9.24,12.06-14.32,2.99-4.19,5.57-8.66,8.52-12.88,5.27-7.54,11.67-14.21,18.03-20.85,1.73-1.8,3.47-3.61,5.38-5.21,3.92-3.27,8.5-5.63,13.04-7.96"/>
    <path class="cls-3" d="M1223.26,281.3c-.75.12-1.54.24-2.23-.08-3.65-1.71,3.38-2.65,3.97-2.98"/>
    <path class="cls-1" d="M1232.4,274.67c-2.95,1.23-5.9,2.45-8.86,3.68-1.49.62-3.06,1.29-4.02,2.58-.7.93-1.01,2.1-1.24,3.24-.46,2.32-.62,4.7-.48,7.07.09,1.46.29,2.92.2,4.38-.23,3.62-2.23,6.86-4.08,9.98-4.23,7.11-8.02,14.49-11.34,22.07-4.08.73-8.65.5-12.69-.45-10.43-2.45-18.71-10.06-27.48-16.23-2.34-1.64-4.74-3.21-6.9-5.08-7.53-6.51-11.6-16.81-10.57-26.71.03-.31.09-.65.34-.83s.72.05.61.34c3.67-.51,7.41-4.16,9.29-7.35s3.12-6.75,5.31-9.74c1.24-1.69,2.75-3.15,4.24-4.63,7.95-7.88,15.35-16.32,22.13-25.22,1.42-1.86,2.82-3.75,4.53-5.34,3.92-3.62,9.15-5.38,14.22-7.04-.16.78,1.19.53,1.97.73,3.96,1.02,7.99,2.05,12.07,1.8,3.29-.2,6.48-1.23,9.76-1.56s6.91.17,9.23,2.51c1.8,1.81,2.52,4.4,2.99,6.91.55,2.88.87,5.81.95,8.75.14,5.02,3.69,9.58,3.95,14.6.17,3.17-.9,6.26-1.98,9.25-.77,2.13-1.57,4.27-2.8,6.16-2.04,3.16-5.89,4.69-9.36,6.13Z"/>
    <path class="cls-1" d="M775.44,592.48l12.78,7.54c1.09.64,2.2,1.3,3.07,2.23,2.19,2.34,2.42,5.87,2.25,9.06s-.61,6.54.64,9.49c.98,2.31,2.87,4.08,4.51,5.97,5.39,6.19,8.4,14.04,12.43,21.2,2.02,3.6,4.32,7.04,6.63,10.46,2.5,3.7,5.06,7.42,8.35,10.44,2.21,2.03,4.73,3.72,6.97,5.72,6.59,5.87,10.52,14.09,14.27,22.07-.51,3.38-1.78,7.05-3.58,9.96-1.16,1.88-2.57,3.6-3.97,5.31-3.58,4.37-7.15,8.75-10.73,13.12-.88,1.08-1.76,2.16-2.46,3.36-.6,1.04-1.06,2.15-1.54,3.25-1.73,3.92-3.81,7.67-6.22,11.21-.2.29-.43.61-.78.68s-.77-.26-.62-.58c-6.03,6.38-7.37,16.55-12.54,23.65-1.2,1.64-2.57,3.17-3.58,4.93-2.09,3.64-2.51,8.06-4.59,11.7-2.46,4.31-7.04,7.1-11.83,8.39s-9.83,1.25-14.79,1.05c-16.88-.68-33.68-3.09-50.07-7.19-3.93-.98-7.86-2.07-11.88-2.55-4.53-.54-9.59-.47-12.96-3.54-3.59-3.28-3.5-9.74.18-12.92,1.24-1.07,2.77-1.77,4.03-2.83,1.92-1.62,3.09-3.99,4.97-5.65,1.63-1.43,3.68-2.26,5.65-3.18,4.75-2.22,9.19-5.13,13.12-8.61-1.36-7.78-2.82-15.01-2.8-22.9,0-2.58.09-5.2.82-7.68.59-2.02,1.6-3.89,2.31-5.87,2.87-7.99.71-16.87,1.74-25.31,1.09-8.85,5.64-16.86,8.11-25.43,1.86-6.46,2.55-13.27,5.16-19.47,4.51-10.71,14.16-18.29,20.64-27.93,4.45-6.63,9.42-15.08,16.29-19.15Z"/>
    <path class="cls-1" d="M1061.6,677.15c-1.45,1.03-3.13,1.72-4.88,2.01-.97.16-1.98.2-2.89.56-1.35.53-2.33,1.7-3.26,2.81-2.2,2.63-4.6,5.32-7.83,6.46-2.18.77-4.56.75-6.77,1.41-5.14,1.53-8.53,6.32-12.94,9.38-6.38,4.44-14.94,5.24-20.73,10.43-2.8,2.52-.28,8.83,1.86,11.93,2.14,3.1,4.93,5.78,6.55,9.17,1.76,3.7,1.99,7.93,3.08,11.88,1.79,6.48,5.85,12.1,8.13,18.43,5.22,14.48.59,30.79,3.95,45.81.36,1.6.86,3.27,2.09,4.35,1.03.91,2.42,1.27,3.76,1.59,17.38,4.14,35.3,5.46,53.12,6.77,5.07.37,10.17.74,15.23.17,4.81-.54,9.48-1.93,14.23-2.88,8.4-1.68,17.62-2.21,24.16-7.75.76-.64,1.49-1.38,1.83-2.31,1.22-3.29-2.65-5.99-5.65-7.8-8.6-5.18-14.64-14.05-17.52-23.67s-2.78-19.95-.97-29.83c1.39-7.59,3.78-15.39,1.88-22.88-.83-3.28-2.47-6.36-2.85-9.73-.27-2.36.65-5.37,3.02-5.67.76-.1,1.51.12,2.24.34,7.2,2.15,14.33,4.55,21.36,7.21,16.11,6.08,32.47,13.61,49.66,12.61,19.31-1.12,36.42-16.15,50.87-29.02,14.44-12.87,24.93-31.74,22.86-50.98-.84-7.82-3.68-15.3-7.08-22.4-3.43-7.17-7.54-14.17-13.4-19.52-4.69-4.28-10.34-7.36-15.92-10.4-9.42-5.12-18.9-10.27-29.03-13.77-3.43-1.19-7.08-2.19-10.66-1.61-2.58.41-4.97,1.63-7.14,3.09-11.61,7.87-16.68,22.18-25.13,33.38-14.53,19.27-38.81,28.91-54.66,47.12-8.12,9.33-15.13,21.59-27.27,23.96-1.98.39-4.1.46-5.94-.39-3.69-1.7-6.62-6.28-7.36-10.27Z"/>
    <path class="cls-1" d="M923.57,201.37c3.29.87,6.52-1.23,9.67-2.49,1.78-.71,3.66-1.17,5.53-1.63,4.2-1.03,8.4-2.06,12.6-3.09,2.39-.59,4.79-1.17,7.25-1.32,3.31-.19,6.6.42,9.88.84,14.7,1.85,29.69-.32,44.38,1.57-3.75,4.45-7.54,8.5-12.69,11.22-2,1.06-4.11,1.88-6.21,2.71-3.98,1.56-7.95,3.12-11.93,4.68-3.27,1.28-6.55,2.57-9.96,3.37-4.26,1-8.66,1.24-13.03,1.48-1.32.07-2.65.14-3.94-.1-1.92-.35-3.65-1.35-5.39-2.25-9.03-4.67-19.61-7.22-26.17-14.99Z"/>
    <path class="cls-4" d="M855.71,383.49c-4.4,10.3-8.8,20.59-13.2,30.89-3.55,8.31-7.11,16.63-9.96,25.21-2.49,7.5-4.44,15.17-6.53,22.8-11.17,40.81-26.39,80.51-45.36,118.33-1.08,2.15-2.2,4.57-1.52,6.88s4.21,3.63,5.52,1.62c7.46,8.16,4.89,21.18,9.16,31.38,1.83,4.35,4.69,8.17,7.52,11.94,11.48,15.28,22.96,30.57,34.45,45.85,3.88,5.17,7.85,10.42,13.05,14.26,5.23,3.85,11.45,6.09,17.6,8.18,29,9.88,59.24,17.91,89.85,16.64,28.94-1.2,57.48-10.95,81.12-27.69,2.74-1.94,5.46-4,8.59-5.23,3.26-1.28,6.93-1.65,9.85-3.59,6.74-4.47,6.2-14.35,4.94-22.34-4.25-26.96-8-53.99-11.25-81.09-7.17-59.86-11.88-119.99-15.8-180.15-6.75,1.29-12.97.86-19.78-.06-3.47-.47-6.94-1.22-10.44-1.07-2.28.1-4.53.59-6.78,1-4.43.8-8.92,1.29-13.4,1.77-6.49.7-12.98,1.4-19.46,2.1-5.43.59-10.87,1.17-16.33,1.2-6.57.03-13.11-.76-19.63-1.54-5.61-.68-11.23-1.35-16.84-2.03-5.52-.67-11.06-1.33-16.45-2.73-13.48-3.48-25.07-11.15-38.93-12.51Z"/>
    <path class="cls-2" d="M831.82,351.61c-14.64,6.62-30.03,11.6-45.77,14.82-4.25.87-8.53,1.61-12.75,2.64-5.79,1.41-11.44,3.37-17.08,5.32-5.72,1.98-11.44,3.96-17.17,5.94-3.06,1.06-6.12,2.12-9.17,3.17-7.65,2.65-15.31,5.3-22.76,8.47,1.61,10.96,3.47,21.72,5.08,32.68,1.3,8.88,2.62,17.82,5.68,26.25,3.06,8.43,8.03,16.42,15.37,21.58,2.63,1.85,5.91,3.98,5.77,7.19-.08,1.81-1.29,3.35-2.51,4.68-3.7,4.01-8.07,7.38-11.52,11.6s-5.96,9.68-4.97,15.05c.92,4.98,4.62,8.91,8.16,12.53,4.95,5.08,9.91,10.16,14.86,15.24.97,1,1.95,2,3.07,2.83,1.25.93,2.99,1.38,4.15,2.35,1.02.86,1.73,2.4,2.49,3.5.83,1.21,1.67,2.43,2.76,3.41,1.98,1.79,4.68,2.67,7.34,2.8s5.33-.42,7.88-1.21c.3-1.56-.05-3.33.57-4.73.65-1.48,2.37-2.98,3.35-4.3,2.16-2.94,4.16-5.99,6.06-9.11,3.81-6.25,7.17-12.76,10.54-19.26,3.32-6.42,6.65-12.86,9.16-19.65,3.17-8.55,4.99-17.53,7.08-26.4,8.31-35.12,21.15-69.16,38.12-101.02,1.36-2.55,2.78-5.21,2.89-8.1.14-3.75-2.15-7.44-5.5-9.14s-7.73-.69-11.15.86Z"/>
    <path class="cls-2" d="M702.15,533.93c-2.81,5.67-6.67,10.81-11.33,15.08-1,.92-2.06,1.82-2.74,3-.48.84-.74,1.78-1.14,2.66-.75,1.64-1.94,3.03-3.07,4.44-7.88,9.81-13.08,21.45-18.19,32.95-1.38,3.1-2.69,6.96-.64,9.67.72.95,1.77,1.6,2.8,2.22,2.64,1.6,5.27,3.2,7.91,4.81,5.73,3.48,11.49,6.98,17.76,9.34,6.55,2.47,13.52,3.65,20.5,4.25.88.08,1.86.11,2.55-.45.61-.5.8-1.34,1.14-2.06,1.45-3.12,5.5-3.96,7.89-6.43,1.53-1.58,2.29-3.74,3.49-5.58,1.17-1.79,2.77-3.26,4.23-4.83,6.53-6.98,10.55-15.89,14.45-24.61.81-1.81,1.64-3.77,1.21-5.71-.39-1.77-1.76-3.15-3.09-4.39-5.34-4.98-11.03-9.55-16.72-14.12-4.38-3.51-8.76-7.03-13.14-10.54-2.61-2.09-5.24-4.21-7.28-6.86-2.42-.4-4.93-1.46-7.35-1.86,0-.29.76-.69.76-.99Z"/>
    <path class="cls-2" d="M1060.63,359.76c-2.89,3.75-5.83,7.58-7.39,12.05-1.93,5.54-1.58,11.58-1.2,17.43,1.41,21.87,2.81,43.74,4.22,65.61,2.81,43.7,5.77,88.13,21.09,129.15,35.66-17.26,66.94-43.5,90.13-75.62,1.35-1.87,2.7-3.82,3.25-6.07,1.33-5.44-2.3-10.7-5.31-15.42-7.16-11.2-11.81-23.99-13.53-37.18-.33-2.49-.53-5.1.35-7.45.98-2.6,3.16-4.53,5.25-6.37,21.38-18.81,41.27-39.31,59.42-61.25,2.67-3.23,5.47-7.09,4.71-11.21-.53-2.86-2.67-5.1-4.67-7.2-7.01-7.39-13.81-15.58-19.63-23.84-1.89-2.68-3.78-5.37-5.67-8.05-.69-.98-1.38-1.96-2.21-2.83-2.48-2.6-5.91-3.15-8.62-5.23-2.51-1.93-3.83-4.99-7.25-5.73-2.75-.59-5.48-.77-8.19-1.62-5.48-1.72-10.56-4.58-15.12-8.04-3.81-2.9-7.29-6.2-10.55-9.7-3.06-3.29-5.86-8.3-10.02-10.25-4.41-2.07-8.34.45-11.18,3.83-3.87,4.61-7.39,9.56-11.06,14.33-7.38,9.57-14.77,19.14-22.15,28.7-8.22,10.66-16.45,21.31-24.67,31.97Z"/>
    <path class="cls-2" d="M1082.22,653.32c.55,4.78,1.45,10.16,5.44,12.84.95.64,2.08,1.09,3.23,1.02,2.02-.11,3.6-1.72,5.05-3.14,7.11-6.99,15.99-11.86,24.07-17.72,26.91-19.53,44.48-49.77,71.13-69.65,8.85-6.6,18.98-12.37,24.43-21.98.52-.92,1.01-1.94.93-3-.09-1.25-.94-2.3-1.76-3.25-5.3-6.22-10.61-12.45-15.91-18.67-3.18-3.73-7.02-7.77-11.91-7.71-4.88.06-8.61,4.17-11.73,7.92-11.88,14.33-24.24,28.34-38.27,40.57-8.29,7.23-17.12,13.81-25.95,20.37-8.85,6.59-17.74,12.67-27.49,17.86-3.12,1.66-5.33,3.28-5.44,7.04-.17,5.56,1.21,11.5,1.84,17.02l2.34,20.44Z"/>
    <path d="M835.62,197.63c1.57,5.18,5.82,9.07,8.4,13.83,8.05,14.84,13.73,30.2,25.22,42.56,4.69,5.05,10.68,8.67,16.58,12.22,1.56.94,3.17,1.9,4.97,2.16,1.51.22,3.04-.07,4.54-.35,4.35-.83,8.7-1.65,13.04-2.48,3.18-.61,6.41-1.22,9.34-2.62,2.7-1.28,5.06-3.19,7.73-4.52,4.95-2.48,10.65-2.88,16.18-2.98,15.55-.29,31.09,1.42,46.43,4.03,8.54,1.46,17.26,3.2,25.8,1.72,8.95-1.55,16.9-6.51,24.35-11.71,16.52-11.54,31.84-24.79,45.63-39.47,5.98-6.37,12.04-14.01,11.43-22.73-4.77.12-8.76.93-13.53,1.06-15.54.4-31.25.83-46.3,4.75-23.43,6.11-44.35,20.48-68.23,24.44-5.47.91-11.16,1.24-16.49-.29-5.85-1.68-10.82-5.45-16.11-8.46-14.86-8.45-32.29-10.88-49.27-12.87-12.1-1.41-24.21-2.68-36.34-3.8-2.74-.25-5.55-.49-8.19.27s-6.01,2.6-5.21,5.23Z"/>
  </g>
  <g id="Drawing">
    <g>
      <path d="M1247.22,694.65c.09.21.24.42.46.62.08.07.17.13.25.19.06-.03.12-.07.19-.11,1.43-2.53,3.52-4.35,5.63-6.26.25-.73.48-1.43.7-2.07-2.21,2.49-4.64,5.05-7.23,7.62Z"/>
      <path d="M1255.76,612.82c.62-7.28-14.19-11.33-24.96-23.63-4.12-4.49-6.76-8.12-10.08-11.82-2.38-2.47-9.58-2.98-7.78-7.81,3.46-8.95,16.03-10.9,17.46-20.39.9-3.73-.28-7.15-4.92-6.36-10.24,1.94-16.89-7.36-22.68-14.37-3.52-4.19-7.9-7.98-9.45-13.23-1.17-8.25-9.65-11.03-12.87-18.16-7.66-15.29-18.16-29.25-25.21-44.63-2.14-11.61,11.83-17.11,18.37-24.51,13.38-14.78,27.77-27.9,39.93-43.95,1.97-2.24,4.06-4.43,6.59-5.99,3.4-2.32,7.54-2.74,8.64-5.14.8-3.13-1.15-6.41.2-9.51,4.09-11.8-9.26-19.27-17.04-25.55-4.76-3.32-5.68-6.33-3.85-11.15,2.9-9.76,10.77-24.82,12.25-35.38.27-1.91-1.87-5.46-3.35-2.65-1.12,2.79-1.47,5.1-2.72,8.2-3.31,6.13-10.6,31.1-19.47,26.01-11.68-6.88-21.03-17.41-32.58-25.02-2.97-2.05-7.51-16.33-12.24-15.38-.12-3.11,4.62-7.21,6.71-9.97,10.79-10.99,19.18-23.8,28.87-35.64,13.65-14.02,22.8-20.04,21.21,5.61-.61,5.13-6.44,1.99-9.67,2.64-4.42,1.44-.39,5.71,2.51,8.04,4.06,2.6,8.64,3.64,13.18,4.69,8.2,3.22-6.35,13.48-.11,19.74,16.77,15.98,37.78-10.5,35.67-27.68-1.62-7.75-4.04-14.97-2.14-22.82,1.92-17.77-19.62-11.16-29.96-9.29-8.06.82-6.81-9.01-16.8-1.26-15.93,10.33-27.48,26.05-39.99,39.86-1.86,2.61-2.02,4.03-2.95,6.53-2.23,4.14-6.15,8.6-9.3,12.83-3.55,5.6-8.66,7.01-14.17,8.97-5.97,2.54,6.34,16.56,10.35,17.54,5.01,2.02,9.3,6.2,13.34,9.75,5.52,4.86,12.28,7.99,17.63,13.13,4.16,5.53,12,6.36,16.14,11.3,3.15,3.42,31.28,25.32,21.33,38.05-10.05,10.65-17.93,23.39-29.02,33-3.5,3.81-43.98,45.35-31.99,21.17,1.47-2.66,4.65-14.62-1-8.34-5.11,5.76-7.57,13.53-11.97,19.87-3.85,7.34-9.47,11.41-14.52,17.25-2.21,4.24,3.1,6.04,6.47,4.43,10.43-5.76,16.05-6.53,20.06,6.29,3.08,9.34,18.57,26.9,14.71,35.01-4.18,10.05-14.11,17.48-20.82,25.4-5.82,13.34-19.3,21.4-30.79,29.77-7.41,4.54-14.02,7.69-20.93,13.15-5.42,4.52-14.75,10.26-16.76-.67-3.06-8.09-4.29-15.85-5.09-24.61-1.68-9.16-3.3-17.75-3.38-27.13-.9-13.48-4.22-26.35-5.31-39.63-.29-13.82-1.88-28.78-2.92-42.66.61-19.84-1.65-39.6-3.22-59.39.86-10.3,10.03-16.19,14.59-25.4,6.37-12.72,18.74-19.86,25.25-32.07,6.83-10.99,15.72-20.07,23.22-30.55,2.52-2.4,12.1-20.28,2.89-13.28-7.88,7.77-17.9,22.88-26.42,29.74,1.24-15.28,7.75-30.24-3.28-44.89-2.83-4.81-4.12-10.4-6.48-15.51-1.89-4.64-2.93-10.74-7.76-13.41-4.62-1.72-8.47-.06-5.45-6.57,5.09-8.56,12.9-16.27,21.88-19.91,4.47-2.51,3.25-6.34,5.03-10.12,4.15-6.89,6.71-11.44-3.94-12.04l-.17-.02c-14.48-1.66-29.51-1.43-43.3,3.91-24.01,4.13-47.11,11.99-69.67,20.26-11.27,5.82-19.1,13.22-32.46,8.78-4.44,1.32,14.06,8.78,16.48,7.45,20.67-7.03,40.55-18.23,61.13-25.32,12.73-3.44,28.45-4.96,41.5-7.27,31.02-6.96,16.38,10.19,4.58,23.3-14.17,16.01-30.35,26.9-46.9,39.57-17.82,14.67-48.79-1.4-69.48-2.36-21.35-1.44-40.94,8.32-60.52,15.08-9.75,1.8-15.31-6.01-21.73-11.84-10.51-9.48-15.19-22.9-21.41-35.36-1.31-5.4-20.92-25.5-6.6-23.69,14.37,1.54,48.1,3.68,61.33,5.56,1.11.3,1.6.81,1.99,1.34,2.26,3.26,7.37,2.27,11.42,3.3,6.42.73,15.85,7.52,21.31,6.22-3.08-6.5-28.24-9.76-3.77-12.46,11.3-1.61,26.84-6.91,29.6-7.8-5.9.4-30.73,1.88-43.7,6.8-10.61,2.22-20.82-3.43-31.35-4.19-14.41-1.11-28.72-4.71-42.81-6.1-1.81.28,0,3.29-2.6,3.01-9.85-.52-23.26-.7-14.21,12.29,9.28,9.77,16.75,21.01,23.35,32.71,6.87,9.41-4.61,16.62-8.48,24.7-3.67,6.45-4.2,14.29-7.02,21.18-2.41,5.88-2.67,12.37-4.46,18.72-1.98,7.99-5.54,17.05-4.38,25.19.7,2.74,2.29,4.31,3.83,7,2.91,5.47-.17,11.65-6.08,13.41-35.7,11.26-70.4,26.01-106.12,36.67-3.78,2.2-23.74,6.55-20.91,12,.51,2.62,2.14,5.29,2.89,7.92.87,5.18-4.62,12.78-8.22,16.49-15.87,8.93-34.43,13.7-49.84,23.68-16.99,8.45-39.91,42.72-10.12,49.06,5.17,1.57,10.4.73,15.49,1.81,4.4,1.31,3.87,6.76,6.95,9.74,7.9,5.38,18.84.46,27.39-1.93,10.91-2.95,19.5-10.76,28.83-16.66,3.1-1.83,6.14-5.3,8.91-6.94,4.69-1.88,6.12,3.49,4.2,7.59-14.93,21.23-32.23,41.37-45.85,63.58-9.17,15.76-17.1,32.24-24.32,48.94-3.74,8.07,6.11,7.85,11,10.88,11.56,8.44,24.23,16.67,36.93,22.55,7.69,3.98,16.49,4.93,22.84,10.66,4.62,3.49.56,13.51,3.9,16.54,4.67-.6,5.81-6.89,7.98-10.58,7.37-17.56,17.64-34.65,30.77-48.42,6.57-5.45,10.32,8.57,14.06,12.09,7.53,11.94,11.74,26.04,19.87,37.84,8.98,14.35,20.87,25.89,31.81,38.84,15.87,13.85-18.56,40.05-19.18,45.3-6.77,15.65-21.53,25.31-24.54,43.02-1.22,7.67-7.6,8.56-14.13,7.71-13.94-.26-28-1.69-41.81.1-2.42.28-5.39.04-7.08-1.29-2.37-2.66.57-6.47,2.96-8.46,2.72-2.53,10.71-7.29,8.82-11.37-14.38-.28-26.35,17.25-41.62,14.71-15.31-4.05,5.36-19.15,13.08-19.64,3.39-.96,7.47,3.33,10.09.73,2.62-16.79.36-34.38.61-51.5-.6-6.65,11.36-44.33,5.49-43.54-7.35,4.02-7.06,16.48-8.71,23.82-1.86,13.09-3.49,26.55-3.14,39.72.77,18.23-1.1,21.1-18.16,28.13-7.33,3.94-14.02,9.4-17.87,16.78-8.79,18.44,19.2,8.87,27.72,15.47,15.72,12.97,36.51,5.44,55.08,5.92,19.11-1.09,32.34,4.81,36.89-18.84,4.82-11.96,12.93-22.98,18.92-34.34,8.3-18.19,14.86-28.98,33.78-37.6,11.36-4.02,18.96,9.99,30.05,11.09,11.87,3.27,24.57,3.43,36.74,4.95,13.9,2.95,28.63,5.54,42.81,3.36,6.79-5.1,10.65-4.34,19.02-5.08,17.71-4.93,23.84,8.69,28.87,23.36,5.09,14,6.59,28.84,8.29,43.41-.39,8.49-1.97,17.93,1.72,26.2,1.51,10.8,8.44,8.3,16.33,9.42,15.99,3.93,32.96-.74,48.74,4.35,11.88,3.43,22.74.86,33.18-4.7,6.73-1.48,13.68-1.26,19.82-4.8,21.13-11.36-11.91-27.25-18.91-37.59-7.95-10.03-2.08-23.98-.42-35,5.38-13.88-3.4-30.74,5.08-27.37,6.24,3.1,49.13,14.99,57.28,16.5,15.78,1.03,43.66-18.5,62.72-37.4-.64-1.42,1.29-2.85,2.34-3.9,1.88-1.55,3.84-4.69,5.66-6.56h.03c.18-.02-.11.82-.57,2.18-.07.2-.15.43-.23.66,6.33-7.14,10.9-13.74,12.47-18.57,6.38-19.65-6.42-37.64-11.17-55.64ZM1242.63,245.22l.1.09c1.97,1.96,1.68,5.42.67,7.84-1.32,3.28-4.65,5.14-6.92,8.13-3.76,4.8-5.95,14.69-13.09,14.85-12.67-2.16-4.13-10.16,1.28-15.2,3.1-3.06,12.87-19.67,17.96-15.71ZM1213.13,240.56c-.37-4.57-1.3-10.37.18-13.64,2.81-5.76,14.36-4.21,19.26-2.67l.17.04c3.13.97,8.43,1.23,7.59,5.54-.54,2.9-2.04,5.12-4.01,7.95-2.33,3.67-5.76,6.98-9.6,8.77-2.03,1.06-3.99,2.05-5.87,3.32-2.78,1.73-7.57,5.77-8.41,1.16-.09-3.39,1.2-6.99.67-10.47ZM1181.06,530.72c2.79-1.85,6.47-2.57,9.53-1.01l.14.07c3.09,1.52,4.25,5.2,6.59,7.87,2.25,2.79,4.66,5.06,6.97,7.71,3.54,3.79,4.17,9.73-.15,12.99-3,2.77-6.87,5.33-10.16,8.1-5.17,4.4-19.38,16.07-21.19,19.9-.52,1.04-2.12,2.62-3.34,3.7-5.22,4.69-11.62,9.4-16.5,14.77-3.16,3.31-6.36,5.89-9.51,8.71-4.61,4.82-9.16,8.54-14.51,13.02-3.2,2.95-27.88,21.39-29.43,23.47-2.36,2.9-4.29,6.16-6.47,9.19-1.73,2.7-5.62,5.95-6.95,1.16-1.29-10.66-1.86-22.75-3.7-33.45-.5-3.35-1.8-6.67-.81-9.88,2.09-5.17,8.46-7.23,12.49-10.59,4.7-3.16,9.02-6.11,13.88-8.86,5.19-3.6,9.7-6.8,14.98-10.73,6.08-4.93,11.1-11.42,17.2-16.24,11.19-9.61,20.93-21,32.13-30.66,3.51-3.13,4.99-6.66,8.81-9.26ZM1112.89,667.55c1.39-.81,2.49-1.77,3.1-3.22.27-.46.43-1.05,1.07-.97.92.24-5.89,7.17-6.56,6.9-.96-.59,1.83-2.3,2.38-2.71ZM1105.09,662.14c-.04-.89.77-1.73,1.37-2.4,2.22-2.19,4.3-5.28,6.77-5.13.47.03.87.2.85.7v.11c-.24,1.01-.76,1.7-1.07,2.69-.44,1.34-.26,2.43-1.28,3.11-1.62.82-5.8,3.6-6.64.92ZM1078.62,597.03c1.08-3.32,3.93-5.53,6.73-7.43,8.9-6.06,18.08-11.86,26.23-18.71,1.66-1.19,3.04-2.81,4.48-4.32,1.56-1.57,3.26-3.03,4.89-4.56,3.83-3.67,9.15-6.51,13.41-9.9,4.83-4.48,10.73-7.82,15.25-12.33,3.54-4.99,6.98-8.86,10.93-13.46,1.5-2.18,3.44-3.89,4.66-6.18,1.33-1.8,2.49-2.98,3.44-5.12,1.12-1.68,2.66-3.48,4.48-4.43,1.73-.78,4.25-.37,5.24,1.22l.05.08c1.31,2.44.44,5.13-1.1,7.62-.94,1.69-1.99,3.87-3.29,5.6-6.11,8.02-12.85,15.1-20.84,21.49-2.44,1.97-5.03,3.97-7.24,6.17-4.16,4.19-6.2,7.81-10.62,11.29-4.18,3.36-9.94,7.31-13.63,10.44-3.11,2.77-5.35,5.78-8.69,8.36-3.71,2.73-8.31,4.94-11.71,7.7-3.74,2.66-7.39,5.15-10.94,7.99-2.42,1.61-8.59,9.77-11.4,5.73-1.05-1.62-1.22-4.74-.33-7.24ZM1056.39,504.17c1.95,9.3,1.4,19.14,2.2,28.68.64,4.33,8.59,39,10.31,45.66,2.15,8.81,2.13,18.38,3.18,27.37.84,12.61,8.52,38.83,2.75,49.62-.12.29-.28.61-.45.95.74-.9,1.55-1.55,2.45-1.47l.08.03c1.95,1.51,2.25,5.81,2.84,8.37,1.04,4.74,1.2,8.49-1.32,12.26-1.96,2.96-4.84,9.69-8.93,9.35-.46-.16-.77-.58-.94-1.24-.33-1.5-.27-3.35-.45-4.95-.3-3.62-1.75-6.95-.91-10.31.49-2.23,1.69-4.15,2.98-6.02-.54.55-1.04.93-1.42,1.05-1.92.35-2.75-4.45-3.74-8.23-.6-2.72-1.72-5.43-1.76-8.21.59-6.41,9.32-4.98,3.25-14.72-3.91-5.75-7.35-11.48-8.29-18.46-6.33-33.61-7-67.07-11.91-100.62-.22-2.77-.59-5.49-.48-8.14.18-3.11.28-4.86-.21-7.21-1.17-5.85-3.61-14.94.23-20.44,1.52-1.83,5.12-4.63,6.94-3l.06.07c1.76,2.81.25,6.4.68,9.71.23,6.63,1.58,13.34,2.89,19.9ZM918.38,521.82c.86-10.07,4.41-20.53,5.08-30.83.49-5.95,1.18-12.16,4.11-17.48,2.85-5.21,5.9-14.32,13.03-12.52l.15.03c15.32,3.98,31.1,5.06,46.71,7.22,6.63.81,12.87-.02,19.33,1.61,5.05,1.02,20.33,3.21,23.06,4.34,2.97,1.04,5.13,3.58,6.11,6.47,1.14,4.13,1.6,8.09,1.82,12.32,1.46,14.47-.43,13.21-9.81,23.41-1.91,2.01-3.86,4.06-5.58,5.87-2.03,1.92-14.58,10.47-16.71,14.86-2.93,6.17-12.97,6.64-19,8.61-3.37.89-6.83,1.26-10.31,1.09-10.22-.54-19.95-2.4-30.07-1.87-6.46.13-13.13.34-19.54-.56-5.06-.75-8.86-3.66-9.36-8.71-.57-4.68.55-9.24.98-13.87ZM915.28,522.82c-.46,3.73-.86,7.64-1.51,11.43-.58,4.08-2.68,7.23-7.06,7.25-3.54.18-7.42.36-11.03.34-5.97-.13-11-1.16-16.44-1.66-5.43-.32-11.22-.15-16.47.53-4.72.86-9.56,1.28-13.41-2.1-3.52-2.9-7.59-5.92-10.78-8.46-3.52-3.03-5.31-6.39-9.41-9.29-3.36-2.83-8.07-5.35-11.51-8.1-2.83-2.11-2.74-4.95-1.79-8,3.13-9.46,7.16-26.91,11.09-36.1,2.2-3.15,6.61-2.97,10.2-3.77,3.3-.57,6.58-1.2,9.9-1.68,19.72-2.81,39.11-2.53,58.86-3.06,4.92.17,10.4-2.05,15.05-.39l.11.06c6.33,4.04-.09,21.57-.75,28.09-2.08,11.83-3.73,24.01-5.06,34.93ZM1008.97,542.42c2.8-1.81,5.02-5.64,7.36-8.52,4.37-5.16,8.94-9.54,14.1-13.34,2.62-1.81,7.02-6.43,9.65-4.86l.07.06c1.68,1.87,1.33,5.96,1.44,8.64.1,3.87.08,8.18.42,12,.73,6.3,2.81,11.51,2.65,17.84-.21,10.48.75,21.18,2.84,31.32.81,6.8,1.38,14.28,2.46,20.73.09,1.44-.12,2.21-.79,2-.62-.18-1.65-1.23-2.99-2.89-2.58-3.27-5.47-7.09-8.09-10.48-3.68-4.97-7.26-8.78-9.85-12.5-1.42-1.98-3.03-4.29-4.7-6.41-3.06-3.76-7-5.23-8.92-9.26-1.24-2.37-6.09-8.49-7.89-8.07-3.49.79-6.36-3.14-7.02-6.35-1.04-6.6,4.72-7.64,9.24-9.92ZM1038.89,424.1c-.28-4.64-.54-8.08-.55-12.46.21-3.28,1.39-4.88,1.21-7.73-.07-2.47-2.39-9.17,2.39-6.59l.14.09c6.95,4.08,7.43,13.31,6.71,20.55-.03,6-.12,11.09.21,16.74.56,9.46,3.61,19.43,5.27,28.8.58,2.74-1.09,5.44-4.27,5.19-3.18.03-6.27-2.98-6.49-6.15-.46-3.04.33-6.5-.32-9.49-.63-2.35-1.9-4.76-2.89-6.73-3.84-6.47-.85-15.08-1.42-22.21ZM842.9,306.32c3.03-7.2,3.12-14.72,5.63-22.58,1.51-4.03,2.67-8.09,3.43-12.29.89-4.24,2.11-8.12,3.67-12.45,1.17-3.4,3.16-7.03,6.6-8.48,4.74-1.94,7.75,4.85,10.27,8.19,2.7,3.94,5.84,8.05,10.07,10.63,2.29,1.53,4.11,3.13,6.67,3.78,1.94.43,3.88-.18,5.84-.9,8.76-3.36,27.98-10.81,36.21-13.96.72-.28,1.39-.48,2.08-.67,3.29-.85,3.56.92,6.83,1.06,2.51.15,5.15-.5,7.68-.64,3.12-.2,5.93.59,8.65,1.05,3.67.14,8.64-.67,13.06.48,4.48.87,8.68,2.47,13.17,3.28,8.29,1.61,17.05,1,25.76,1.07,7.76.32,14.2.19,20.29-5.33,4.9-4.78,13.55-1.93,18.61-5.86,1.47-1.26,1.08-2.66.8-4.25-1.47-5.4,5.46-8.84,8.97-11.76,7.32-5.67,11.6-8.72,16.5.4,3.05,6.29,7.83,11.86,7.05,18.53v.12c-.52,3.14-.47,6.13.96,9.09,1.21,3.08,1.69,7.23,2.26,10.06.88,4.17,5.84,24.72,3.28,28.68-1.15,1.83-3.3,2.25-5.28,2.64-1.48.34-3.75.89-3.75,2.61-.04,2.15,4.02,4.84,4.88,7.59.83,2.15.27,4.53-.54,6.64-2.35,5.93-5.77,11.61-11.02,15.33-2.83,2.29-6.32,3.64-8.86,6.33-8.36,8.87-14.48,20.04-20.93,30.43-2.65,3.98-4.97,6.19-8.18,8.67-1.94,1.75-2.26,4.15-3.6,6.41-3.42,5.84-33.67,8.3-42.7,9.76-2.59.27-5.22.64-7.54.42-2.19-.21,2-2.2.25-2.48-18.03.37-37.07,3.8-55.82.82-3.09-.48-6.21-1.24-9.09-2.36-1.63-.52-4.28-1.79-5.46-1.66-.51.05-.28.5.66,1.22,1.38,1.06,3.13,1.92,4.98,2.59,1.25.45,2.55.82,3.82,1.11.61.14,1.21.26,1.8.36,12.59,2.46,24.97,1.94,37.49,1.9,2.99.06,1.4.62-.13.9-3.37.67-9.79.91-13.01,1.69-4.03,1.22,5.09,1.54,6.19,1.37,15.73-.39,31.41-2.34,47.05-4.23,4.91-.63,9.66-1.16,14.59-1.28,7.97-.44,16.89-.74,18.67,8.94,1.22,5.4.36,12.11.67,17.95.18,11.23,1.76,22.06.95,33.09-.96,4.51-6.77,2.67-10.12,1.8-6.5-1.4-12.98-1.92-19.36-3.87-2.84-.74-5.91-.76-8.7-.89-4.48-.08-8.38-.8-13.07-1.29-5.66-.05-11.64.24-17.11-.17-5.34-.41-10.72-.5-16.06-1.04-4.75-.19-11.98.2-13.57-5.62-1.25-2.77-.05-11.21-3.16-12.16-.88,0-1.61,1.07-2.12,1.83-2.62,4.02-2.25,9.67-5.83,12.95-2.07,1.98-5.03,2.39-7.99,2.47-10.22.32-21.63-.55-31.64.53-3.85.48-7.53,1.26-11.45,1.45-4.76.25-9.77-.18-14.57-.06-5.54-.47-26.3,4.74-24.51-4.85,3.72-15.1,11.39-28.93,16.78-43.59,1.79-4.59,2.42-9.49,4.55-13.84,4.15-8.26,10.85-6.76,17.35-2.45,3.5,2.05,7.87,3.12,11.97,4.41,7.28,2.27,14.18,5.41,21.6,6.76,2.95.62,9.02.58,5.02-1.5-.45-.24-1.04-.5-1.77-.79-4.95-1.74-9.81-3.33-14.76-5.44-4.62-2.01-9.08-4.79-13.13-7.06-4.57-2.44-6.37-4.64-7.9-9.33-1.6-3.84-6.6-3.71-9.74-5.74-5.32-3.05-9.98-9.83-12.3-15.99-2.38-7.08-4.49-14.16-6.4-21.35-.79-3.07-1.27-6.23-1.55-9.4-.39-7.24-3.43-12.97-.89-19.78ZM721.3,468.55c-2.56,4.4-8.18,9.3-11.79,13.49-3.97,4.1-8.12,9.63-12.53,10.67-2.86.88-6.12,1.08-9.12,1.45-3.79.44-6.75,1.36-10.13,3.1-2.33,1.13-5.02,2.77-7.46,3.32-3.59.63-.6-3.49.14-5.44,1.24-2.63,2.28-5.78,1.15-8.57-3.14-6.52-11.78-3.28-17.36-3.14-3.9.23-7.35-1.44-10.72-2.39-2.68-.81-5.64-1.14-8.01-2.73-5.99-4.26-.75-11.27,2.94-15.22,3.36-3.85,6.45-7.76,10.54-10.58,3.59-2.57,8.02-3.05,12.02-4.61,3.33-1.29,6.25-3.77,9.44-5.44,3.26-1.73,6.78-2.83,9.99-4.69,2.8-1.6,5.44-3.5,8.17-5.24,3.15-2.04,6.32-4.05,9.69-5.47,2.15-.88,4.73-1.87,6.94-1.24l.12.04c2.78,1.04,3.66,4.54,4.68,7.52.86,2.63,1.76,5.47,2.6,8.13,1.5,4.82,2.81,8.57,4.67,12.02,2.12,4.59,6.47,9.82,4.03,15.01ZM729.2,501.41c4.11-4.68,6.09-8.21,9.92-12.5,2.14-2.25,4.61-4.54,6.6-6.99,4.05-4.77,8.64-8.49,13.02-13,2.03-2.25,6.18-10.28,9.72-16.33,3.67-6.56,8.19-12.84,13.35-18.35,5.29-5.97,9.66-11.89,14.73-18.78,1.82-2.49,3.71-5.08,5.42-7.61,2.68-3.82,4.11-8.28,6.5-11.95,1.53-2.68,4.05-5.5,5.07-8.22.81-2.06-.25-4.4-2.4-2.7-3.41,2.84-4.69,6.45-8.04,9.8-11.2,16.51-25.8,33.15-38.35,49.19-3.88,5.01-7.25,9.8-10.53,15.07-2.01,4.68-3.72,8.68-7.73,11.98-6.42,6.54-10.06,6.17-14.1-1.83-3.16-5.74-6.41-11.4-9.3-17.32-2.64-5.04-4.68-9.54-6.02-14.76-1.22-5.53-1.23-10.79-2.41-16.28-.84-2.75-1.64-5.32-1.83-8.19-.28-2.77-.96-5.26-1.1-8.01-.49-3.11-1.66-6.11.89-8.57,2.79-2.68,7.14-3.59,10.81-4.68,8.67-2.69,17.44-4.63,25.53-8.58,6.08-3.5,12.79-5.69,19.77-7.31,14.85-4.23,31.61-5.86,46.36-10.03,3.64-.92,7-2.87,10.35-3.87,4.34-1.05,8.02-2.58,11.75-4.24,1.7-.84,3.58-.34,4.64,1.22,2.12,2.82.9,7.38-.76,10.36l-.07.13c-.75,1.49-1.71,2.76-2.43,4.23-1.07,2.28-1.65,5.25-3.09,7.66-3.14,5.9-6.37,12.96-8.7,19.41-1.32,3.09-1.32,6.31-1.76,9.44-1.06,5.23-4.6,10.01-6.04,15.43-3.37,11.75-9.18,22.93-13.47,34.43-2.64,9.28-4.26,17.91-6.38,27.26-3.39,13.17-9.2,25.6-15.68,37.62-3.72,7.5-7.97,14.58-12.83,21.41-7.24,10.78-11.76,1.58-17.29-4.56-4.83-5.53-10.7-9.93-15.74-15.16-8.27-8.14-20.32-12.87-8.38-24.82ZM708.44,525.24c1.82-2.87,4.81-8.94,8.95-7.08l.14.06c4.63,2.55,8.25,7.97,12.34,11.41,2.66,2.39,5.09,4.2,7.38,6.49,2.55,2.36,3.85,4.95,5.99,7.51,2.63,2.97,5.46,5.07,8.94,7.41,3.1,2.31,9.27,5.2,8.57,9.73-1.26,3.17-6.41,6.76-10.35,6.81-6.35-.14-11.4-6.77-16.27-10.46-4.16-4.47-7.02-7.54-11.8-10.81-3.91-3.39-9.03-7.87-12.61-11.72-2.74-2.71-3.49-6.06-1.27-9.36ZM708.68,621.3c-14.27-3.15-26.09-13.61-37.78-21.19-5.97-4.97,1.32-12.53,3.97-17.53,2.97-4.63,5.33-9.53,8.29-14.29,4.88-7.31,9.74-14.36,13.24-22.38,1.44-3.2,3.61-8.5,8.02-7.23,4.58,1.42,9.78,6.71,13.18,10.61l.12.14c3.97,5.06,8.55,9.9,13.98,13.95,3.85,3.02,8.88,4.91,12.23,8.47,3.14,3.32,1.32,7.77-.33,11.54-1.6,3.59-3.25,7.11-5.2,10.37-3.9,6.49-9.6,11.84-14.77,17.3-4.44,4.19-7.73,11.92-14.96,10.24ZM778.67,564.89c-.11.76-.16,1.3-.36,1.93-.45,1.45-1.82.93-3.31,1.89-2.4,1.42-2.96,5.16-3.41,7.45-.19,3.89.65,6.79-.88,10.96-1.12,3.54-3.68,6.59-5.91,9.54-5.16,6.91-10.63,13.04-15.74,20.07-2.68,3.65-5.4,7.37-7.85,11.13-1.9,2.78-4.35,5.97-7.89,6.19-2.61.17-5.05-1.45-7.34-2.82-1.72-1.05-3.63-1.91-5.34-2.95-5.98-3.49.88-9.08,3.93-12.14,3.95-3.95,6.83-6.75,10.12-11.42,6.65-9.48,14.4-21.64,19.36-30.94,1.64-3.93,5.17-5.73,8.91-7.64,4.79-2.88,7.46-8.75,10.15-13.63,2.93-5.61,6.11-11.06,8.69-16.34,2.34-4.76,4.36-9.97,7.74-14.53,2.42-3.33,5.16-6.52,7.02-10.18,2.29-5.27,3.83-10.46,6.28-15.66,1.74-3.74,3.62-7.97,4.31-11.95.83-5.36,1.26-10.96,2.98-16.09,2.1-7.04,3.94-13.3,7.02-19.96,1.64-3.96,3.55-7.28,4-11.4.26-4.89,2.37-9.42,4.43-13.87,1.32-3.03,1.93-6.05,3.04-8.31.59-1.33,1.35-2.67,1.75-4.01.88-3.21.53-6.39,2.05-9.52,1.99-3.49,4.64-7.21,6.79-10.46,1.13-1.82,4.72-6.41,6.3-5.26,0,0,.42,1.2-.04,2.3-.76,1.74-2.02,3.47-3.02,5.14-2.14,3.28-3.74,6.86-4.68,10.67-.96,2.81-.24,5.65.21,8.1.44,3.01-1.08,5.89-2.21,8.86-4.13,12.15-11.08,23.02-15.3,35.38-.77,2.44-1.94,5.18-2.83,7.42-1.55,3.79-.1,4.07,2.2,6.2,2.3,2.8-.53,6.57-1.83,11.16-1.46,4.47-2.72,9.41-4.36,13.81-1.37,2.91-2.4,6.89-3.85,9.42-1.25,2.35-3.73,3.93-4.52,6.53-.35,1.51-.09,3.07-.29,4.83-.19,2.61-1.26,5.05-2.66,7.33-1.48,2.42-3.03,4.78-4.27,7.33-2.38,4.66-3.7,10.14-6.27,14.76-1.79,3.1-3.41,5.98-5.72,8.3-3.6,3.39-7.23,7.13-7.37,12.38ZM786.71,604.41c-.93.81-1.79,2.3-2.79,1.13-.76-1.1-1.41-3.24-.77-4.4l.08-.08c.96-.7,4.99.17,4.83,1.66-.09.47-.69,1.04-1.35,1.7ZM790.46,564.27c.91-2.52,2.56-5.08,3.85-7.51,3.82-7.26,7.09-14.59,10.51-21.94,7.28-13.72,5.99-19.68,21.51-8.11l.17.12c3.76,2.7,7.3,5.59,10.91,8.48,2.7,2.16,5.73,4.22,7.42,6.86,5.35,8.72-5.63,12.8-11.69,16.05-4.13,2.6-7.71,6.04-11.58,9.17-5.69,4.3-11.25,8.82-17.39,12.4-2.49,1.33-5.31,3.31-7.53,4.61-1.21.67-2.16.95-2.98.67-4.33-2.16-4.19-8.92-4.16-13.33-.02-2.47.02-4.96.96-7.47ZM813.97,641.46c-5.42-2.44-8.22-7.86-11.7-12.72-2.9-4.13-5.23-8.77-7.12-13.98-1.46-4.21-3.24-8.75-3.84-13.1-.69-4.65,2.27-7.87,5.46-10.7,3.54-3.1,7.3-6.45,11.3-8.27,4.52-1.94,9.59-2.97,13.65-5.83,9.79-7.3,18.33-16.67,27.97-24.39,3.78-2.8,8.07-4,12.53-4.71,4.33-1.06,8.7-.64,13.12-.06,5.45.69,11.33,1.02,16.71.91,3.48.08,8.54-.21,10.64,2.73l.05.08c.52.83.63,1.97,1.36,2.59.35.31.82.37,1.28.35,1.32-.07,3.77-1.09,4.84-.51.98.59,1,1.77,1.08,2.9.1,1.7.03,3.67-.18,5.44-.99,9.82-2.7,19.5-3.86,29.19-.88,6.06,1.38,12.94-3.64,16.29-2.39,1.7-5.62,2.53-8.23,3.74-3.27,1.47-5.86,2.87-9.6,4.07-5.56,2.14-11.64,3.19-17.31,5.04-4.65,1.3-9.28,3.62-13.99,3.99-1.88.11-14.9,7.56-17.71,9.25-1.7.93-3.83,1.58-5.72,2.36-2.14.89-4.36,1.76-6.4,2.81-4.08,2.21-6.76,4.11-10.66,2.53ZM974.63,713.77c-2.11.79-4.88.6-7.31.72-11.09.48-22.46.86-33.32-.91-4.07-.66-8.24-1.61-12.27-2.24-13.85-1.72-30.91-4.44-43.57-8.4-3.24-1.04-5.82-2.23-8.61-3.96-4.93-3.16-11.58-7.79-15.94-12.02-3.48-3.55-7.26-6.78-11.3-9.9-7.19-5.71-13.65-11.02-19.7-18.21-5.8-6.7-6.21-10.18,2.11-14.17,3.75-1.86,7.72-3.31,11.55-5.01,5.34-2.42,17.87-7.81,19.53-9.08,3.86-2.77,8.87-3,13.58-4.53,6.16-1.49,12.22-4.17,18.11-6.41,4.54-1.69,8.29-3.91,12.39-6.18,3.51-1.28,11.8-2.03,13.88-1.3,4.16,1.39,9.18,5.86,13.22,8.56l.16.11c9.31,6.49,20.53,10.94,30.07,16.89,4.68,2.98,8.2,7.36,13.07,10.06,4.24,2.33,8.2,4.22,12.15,6.9,4.41,2.66,8.12,5.72,12.61,8.38,3.36,1.91,6.72,4.06,9.79,6.25,5.79,3.43,12.05,5.6,18.16,8.28,2.94,1.24,6.99,2.18,9.68,4.13,5.98,4.14,0,8.73-3.61,11.91-1.35,1.26-2.65,2.43-4.06,3.56-4.81,4.01-11.3,4.15-17.33,5.32-8.22,1.73-30.77,10.22-33.04,11.26ZM1264.23,653.26c-.7,2.79-2.59,5.11-3.95,8.76-1,2.62-1.46,5.52-2.2,8.24-.99,4.36-3.6,8.9-6.38,13.32-2.94,4.56-5.73,9.68-9.67,13.25-2.7,2.39-5.92,4.13-8.94,6.16-8.4,5.79-16.1,12.55-25.95,15.55-7.47,3.52-14.47,7.46-23.33,5.99-14.3-2.19-41.54-8.19-52.64-18.05-5.62-5.74-11.2-10.55-11.39-19.3-.61-5.89-3.21-6.39-5.19-.85-1.37,4.12-1.39,8.26-1.19,12.85.18,4.96.17,10.78.62,16.13.8,6.8,2.62,13.82,1.76,20.72-.6,5.82-2.01,9.13-3.49,14.51-3.31,11.16-2.04,24.18,4.6,33.7,1.74,2.63,4.31,4.62,6.26,7.08,2.49,3.09,4.2,6.12,6.42,9.08,1.51,2.44,8.17,5.63,6.04,8.6-1.77,1.56-4.53,1.98-7.68,2.71-5.32.99-11.23,2.33-16.54.42-8.32-2.66-12.15-12.86-20.06-15.76-3.85-.57-3.97,4.05-2.33,7.24,1.93,4.41,7.75,8.11,10,11.68,1.1,1.89.19,2.6-2.91,2.38-4.46-.5-10.03-.82-14.76-.5-6.87.24-13.75-.49-20.44-1.61-8.97-1.68-18.22-3.13-26.84-6.17-4.85-1.86-7.35-6.52-6.35-11.48.38-3.93,1.24-8.21.7-12.95-.26-1.93-.23-4.06-.19-5.93.07-4.05-1.29-7.46-2.34-11.58-1.71-6.96-2.9-15.01-5.26-21.72-2.57-7.44-5.75-14.06-9-20.97-1.87-4.05-5.53-8.37-4.87-12.72,2.35-5.16,10.15-6.03,14.69-8.97,6.75-3.33,10.32-7.37,15.81-11.34,4.25-3.3,7.62-.09,11.17,2.26,5.5,2.69,1.83-6.17,2.88-9.21.27-1.31.95-2.57,1.9-3.53-.27.11-.54.21-.81.27-3.08.93-18.56-3.74-21.27-5.31-4.33-2.96-8.53-4.4-12.99-6.82-1.34-.85-2.94-1.92-4.34-2.96-5.84-4.52-13.08-7.69-19.51-12.15-3.28-2.1-5.57-5.69-8.91-7.48-3.63-1.73-7.84-2.33-11.23-4.78-8.17-5.25-16.68-12.91-25.32-17.62-4.32-2.57-31.29-15.19-32.79-15.87-3.25-1.54-5.39-4.69-5.34-8.45.35-8.57,3.37-16.89,3.88-25.33.44-5.43.17-11.3,1.8-16.51,1.44-4.5,5.33-5.66,9.77-6.17,5.77-.81,10.98-.31,16.75.19,9.84.03,20.13.06,30.04.75,5.34.58,11.71-.24,16.31,2.61l.14.09c3.3,2.46,6.98,4.68,10.47,6.95,2.15,1.53,3.83,3.59,5.56,6.03,2.31,3.05,16.43,21.9,17.65,22.58,2.78,2.26,6,4.13,8.6,6.66,3.18,2.91,5.69,7.75,8.58,11.46,3.61,4.97,8.09,9.22,10.87,14.75,1.51,2.88,2.38,6.44,3.19,9.48,1.9,6.62,2.48,12.82,2.91,19.85.3,6.97,3.11,13.99,1.64,20.93-.39,1.99-1.72,4.01-3.33,5.41,2.37-.73,3.64,1.28,4.09,4.53.6,3.94,1.53,8.25,1.87,12.26.46,4.36,10.71,3.92,17.12-1.38,3.18-2.86,12.74-9.25,23.89-15.21,3.34-2.37,20.99-15.82,21.03-18.23-.1-3.43,2.36-6.16,5.38-7.62,5.42-2.64,10.16-6.6,14.95-10.1,5.41-4.75,11.27-9.77,18.04-12.63,9.57-2.27,22.65,1.42,26.56,11.38,3.56,9.17-.48,21.3-7.86,27.46-3.44,3.14-9.76,4.45-12.75,7.76-1.95,2.82,3.73,2.86,5.72,2.22,18.27-4.87,31.39-30.92,18.26-46.61-2.52-3.29-23.15-14.5-26.7-14.27-1.23-.07-.64-1.56-.4-2.47.73-2,1.87-3.91,2.48-6,2.06-4.81,7.41-8.3,11.12-11.99,3.52-3.52,6.85-5.96,10.98-9.37,2.91-2.3,6.31-5.22,10.19-4.82l.15.02c2.98.35,33.16,16.69,36.6,18.69,3.7,2.17,7.24,5.97,10.58,8.88,4.7,4.21,7.92,9.22,10.53,15,2.85,6.07,5.16,12.1,6.6,18.46.59,2.46.89,5.28.3,7.52Z"/>
      <path d="M1070.16,662.48c1.43-1.43,3.18-4,4.22-6.03-.86,1.03-1.63,2.39-2.36,3.31-.59.91-1.23,1.81-1.86,2.72Z"/>
      <path d="M928.72,284.26c4.73,1.79,8.82,3.93,14.39,5.75,3.55,1.27,7.33,2.45,10.44,1.88,3.53-.53,6.19-2.9,9.5-4.1,3.36-1.33,7.74-1.19,11.45-1.38,4.96-.2,8.95-1.14,13.38-1.48,5.83-.58,10.02.94,15.02,2.82,5.24,1.84,10.69,2.59,16.06,5.4,3.43,1.76,6.3,4.32,9.37,6.59,2.17,1.63,4.45,3.04,6.37,4.94,2.6,2.47,4.13,5.63,5.42,9.17.62,1.66,1.42,4.5.95,5.87-1.86,2.88-8.22-3.26-10.29-4.54-3.45-2.48-6.86-4.53-10.49-6.96-5.83-3.84-11.54-7.95-18.32-9.78-5.85-1.51-12.83-3.67-18.83-3.47-5.5.43-10.04,2.79-15.73,3.11-10.23,1.01-20.59,1.37-30.26-1.85-3.8-.99-8.12-2.05-11.49-3.48-1.6-.52-3.19-.25-4.82.05-3.86.71-8.64,1.85-12.77,2.07-6.44.76-12.63,4.67-18.04,8.35-3.44,2.14-6.57,3.91-9.27,6.68-2.39,2.06-6.09,3.36-8.9,2.2-.49-.21-.9-.56-.93-1.11,1.88-8.48,13.27-11.24,20.05-15.08,9.84-4.67,27.89-15.53,37.59-11.73l.15.05Z"/>
      <path d="M965.07,268.01c1.22-.86,4.15-2.13,4.54.03.2,1.76-3.39,4.9-5.02,6.84-2.1,1.97-4.73,7.9-7.22,8.05-.4-.08-.58-.37-.72-.79-.75-5.57,4.45-10.7,8.26-14.02l.16-.11Z"/>
      <path d="M939.18,269.05c2.36,1.06,4.46,4.71,6.25,7.09,1.13,1.8,2.64,3.53,2.85,5.47-.04,1.49-2.26.59-4.16-1.37-2.11-2.07-11.33-12.17-5.08-11.24l.14.05Z"/>
      <path d="M929.28,403.51c-1.68,1.89-5.05,2.06-7.49,1.83-3.43-.44-6.49-1.87-2.69-1.87,2.52-.1,5.81-.23,8.24-.32,1.26-.06,1.99,0,1.95.3v.06Z"/>
    </g>
    <path d="M1014.73,196.8c.13.29.05.66-.17.88-.76-1.17-2.17-2.9-3.56-2.96-3.81-.15-7.62-.3-11.43-.45-4.13-.16-8.19-.34-12.3-.85-1.2-.15-2.41-.3-3.61-.45-4.93-.61-9.86-1.22-14.79-1.83-1.06,1.29-1.97,2.22-3.03,3.51"/>
    <path d="M972.9,194.15c6.35,1.19,12.79,1.62,19.22,2.04s13.18.85,19.77,1.27c1.93.12,1.92-2.88,0-3-6.43-.41-12.86-.83-19.29-1.24s-12.67-.79-18.91-1.96c-1.89-.35-2.7,2.54-.8,2.89h0Z"/>
    <path d="M969.71,190.64h-2.21c-.38,0-.79.17-1.06.44s-.46.69-.44,1.06.14.79.44,1.06.65.44,1.06.44h2.21c.38,0,.79-.17,1.06-.44s.46-.69.44-1.06-.14-.79-.44-1.06-.65-.44-1.06-.44h0Z"/>
    <path d="M936.17,210.95c2.37.41,4.42,2,6.43,3.24,2.27,1.39,4.54,2.79,6.81,4.18,1.65,1.01,3.16-1.58,1.51-2.59-2.35-1.44-4.7-2.88-7.04-4.32-2.16-1.32-4.37-2.96-6.91-3.4-.8-.14-1.62.21-1.85,1.05-.2.72.25,1.71,1.05,1.85h0Z"/>
    <path d="M1124.2,277.65c3,1.51,6.24,2.5,9.17,4.15,1.4.79,2.62,1.73,3.71,2.9,1.21,1.31,2.33,2.65,3.87,3.6l1.51-2.59c-3.04-1.75-6.03-3.6-8.96-5.53-2.65-1.75-5.3-4.05-8.63-4.15-1.42-.04-1.81,1.61-1.06,2.56,2.97,3.74,7.17,6.42,11.8,7.61l.4-2.95c-1.18.15-2.1-.45-3.1-1.01-1.07-.61-2.18-.95-3.29-1.45-.85-.38-1.35-1.15-1.84-1.92-.6-.96-1.19-1.93-2.02-2.72-1.39-1.34-3.52.78-2.12,2.12,1.76,1.68,2.33,4.17,4.73,5.22.6.26,1.25.42,1.84.7.65.3,1.25.69,1.88,1.04,1.2.66,2.51,1.2,3.91,1.02.74-.09,1.38-.5,1.47-1.3.09-.72-.34-1.46-1.07-1.65-4.17-1.07-7.8-3.47-10.47-6.84l-1.06,2.56c1.35.04,2.53.7,3.65,1.41,1.35.86,2.66,1.8,4.01,2.68,2.76,1.8,5.56,3.53,8.42,5.17,1.68.97,3.16-1.58,1.51-2.59-1.42-.87-2.41-2.24-3.55-3.43s-2.56-2.24-4.04-3.07c-2.93-1.65-6.17-2.64-9.17-4.15-1.72-.87-3.24,1.72-1.51,2.59h0Z"/>
    <path d="M1215.34,279.06c1.93,0,1.93-3,0-3s-1.93,3,0,3h0Z"/>
    <path d="M1220.49,289.54c0-.75.05-1.49.14-2.24-.03.25.03-.19.03-.24.03-.21.07-.42.11-.63.06-.34.14-.68.22-1.02.36-1.47.8-2.68,1.43-3.92.35-.7.21-1.66-.54-2.05-.68-.36-1.68-.21-2.05.54-1.49,2.97-2.31,6.22-2.34,9.55,0,.78.7,1.54,1.5,1.5s1.49-.66,1.5-1.5h0Z"/>
    <path d="M1106.22,663.49c3.75-1.83,6.83-5,8.54-8.81.46-1.03-.07-2.23-1.3-2.26-3.58-.09-7.13,1.43-9.49,4.13-.97,1.11-.05,2.88,1.46,2.51,2.97-.74,5.87-1.7,8.69-2.87l-1.85-1.05c-.07-.21.13-.31-.07-.25-.1.03-.26.31-.33.39-.25.29-.51.58-.78.86-.5.53-1.02,1.04-1.57,1.53-1.06.95-2.19,1.8-3.39,2.56l1.82,2.36c1.68-1.86,3.56-3.51,5.65-4.9l-2.2-.9c.19.98-1.02,2.29-1.56,3.01-.8,1.06-1.69,2.05-2.64,2.98l2.36.3.03.07v.8c.03-.16.59-.61.8-.81.45-.45.9-.9,1.34-1.34.86-.86,1.72-1.72,2.59-2.59,1.03-1.03,0-2.96-1.46-2.51-1.85.58-3.36,1.73-4.42,3.35-.76,1.16.49,2.47,1.69,2.2.66-.15,1.31-.29,1.97-.44l.84-.19.56-.12c.43-.06.37-.1-.16-.12l-.54-.54c.19.24,0,0,.02-.12-.02.15.01.32.01.46,0,.38.01.77.02,1.15.01.64.16,1.47-.07,2.08s-.77,1.13-1.16,1.62c-.5.65-1.01,1.3-1.51,1.95s-.62,1.5,0,2.12c.52.52,1.62.64,2.12,0,.95-1.22,1.97-2.42,2.85-3.7.93-1.35.79-2.95.76-4.52-.03-1.4-.08-3.22-1.88-3.43-.74-.08-1.53.19-2.25.35-.8.18-1.59.35-2.39.53l1.69,2.2c.62-.95,1.55-1.64,2.63-1.98l-1.46-2.51c-1.17,1.17-2.34,2.35-3.52,3.52-.98.98-2.82,2.45-1.72,4,.55.78,1.62,1.03,2.36.3,1.26-1.24,2.4-2.59,3.43-4.03s1.9-3.01,1.54-4.88c-.18-.92-1.44-1.4-2.2-.9-2.3,1.53-4.41,3.32-6.26,5.36-1.1,1.21.32,3.31,1.82,2.36,1.63-1.04,3.17-2.22,4.57-3.55.68-.65,1.33-1.34,1.95-2.06.7-.82,1.38-1.73,1-2.87-.23-.7-1.06-1.37-1.85-1.05-2.82,1.17-5.73,2.13-8.69,2.87l1.46,2.51c1.87-2.14,4.52-3.33,7.37-3.26l-1.3-2.26c-1.53,3.4-4.12,6.09-7.47,7.73-.73.36-.93,1.39-.54,2.05.43.74,1.32.9,2.05.54h0Z"/>
    <path d="M1115.48,664.95h.66c.21,0,.4-.04.58-.13.19-.06.35-.16.48-.31.15-.14.25-.3.31-.48.09-.18.14-.37.13-.58l-.05-.4c-.07-.25-.2-.47-.39-.66l-.3-.23c-.23-.14-.49-.2-.76-.2h-.66c-.21,0-.4.04-.58.13-.19.06-.35.16-.48.31-.15.14-.25.3-.31.48-.09.18-.14.37-.13.58l.05.4c.07.25.2.47.39.66l.3.23c.23.14.49.2.76.2h0Z"/>
    <path d="M1249.62,698.79c.17-2.52,1.28-4.89,3.06-6.66.95-.95,1.93-1.86,2.37-3.18.2-.6.21-1.26.23-1.88,0-.15,0-.31.01-.46,0-.02.02-.28,0-.13.01-.1.08-.23.08-.32,0,.07-.08.1-.13.13l-2.2-.9c.14.34-.12.73-.26,1.08-.2.51-.41,1.02-.61,1.53-.43,1.06-.85,2.12-1.28,3.18s-.81,2.08-1.25,3.11c-.31.73-.68,1.58-1.32,2.09-.23.18-.53.35-.83.4-.03,0-.31.04-.33-.03-.03-.16.81.95.28.73,0,0,.64-.5.72-.56.34-.26.65-.54.94-.85,1.32-1.42,2.15-3.17,2.92-4.93.33-.74.22-1.61-.54-2.05-.64-.37-1.72-.21-2.05.54-.7,1.6-1.41,3.3-2.67,4.55-.65.64-1.51,1.07-1.96,1.9-.57,1.05-.33,2.32.6,3.07,1.73,1.38,4.25.39,5.52-1.13,1.41-1.69,2.05-3.99,2.86-6.01.49-1.23.99-2.46,1.48-3.69.46-1.14,1.17-2.44.67-3.69-.32-.81-1.34-1.52-2.2-.9-1.35.98-1.39,2.3-1.46,3.84-.06,1.12-1.19,1.92-2,2.78-2.18,2.31-3.43,5.32-3.64,8.48-.05.81.73,1.5,1.5,1.5.86,0,1.45-.69,1.5-1.5h0Z"/>
    <path d="M732.74,652.19c-2.99,8.92-4.83,16.56-4.12,18.36s3.96-2.23,11.16-16.62"/>
    <path d="M885.12,393.61c8.53,3.45,17.49,5.68,26.64,6.66,4.71.51,9.43.47,14.15.74s9.17,1.53,13.81,2.17c5.38.74,10.81.84,16.23.93,1.93.03,1.93-2.94,0-3-16.02-.5-32.11-.99-47.97-3.49-1.88-.3-2.67,2.27-.8,2.89,12.72,4.21,26.21,5.93,39.58,5.05,1.51-.1,2-1.94.76-2.8-4.69-3.2-10.53-2.69-15.89-2.14-6.49.67-12.9.6-19.31-.71l-.4,2.95c15.8,1.38,31.74,1.24,47.57.54s31.37-2.15,46.94-4.33c8.49-1.19,17.06-2.49,25.04-5.75,1.74-.71,1.13-3.39-.8-2.89-1.54.4-3.08.8-4.62,1.2-1.87.48-1.08,3.38.8,2.89,1.54-.4,3.08-.8,4.62-1.2l-.8-2.89c-6.93,2.84-14.31,4.19-21.68,5.27-7.8,1.15-15.64,2.1-23.49,2.86-15.67,1.53-31.41,2.31-47.16,2.33-8.82,0-17.64-.26-26.43-1.02-1.68-.15-2.05,2.61-.4,2.95,6.24,1.28,12.57,1.58,18.91.94,5.17-.52,11.02-1.52,15.58,1.6l.76-2.8c-13.13.87-26.29-.81-38.78-4.94l-.8,2.89c16.13,2.54,32.47,3.09,48.77,3.6v-3c-4.73-.07-9.46-.15-14.16-.67s-9.09-1.84-13.72-2.27-9.18-.28-13.76-.65-9.11-1.09-13.58-2.11c-5.05-1.16-10-2.74-14.81-4.68-1.79-.72-2.57,2.18-.8,2.89h0Z"/>
    <path d="M979.75,402.5c1.46-.97,2.98-1.82,4.6-2.49,1.42-.59,1.45-3.07-.4-2.95-.95.06-1.89.12-2.84.19-1.91.12-1.94,3.09,0,3,4.25-.2,8.51-.4,12.76-.6s8.26-.19,12.33-.74c2.02-.27,3.92-.84,5.86-1.43s3.94-.96,6-1.17c3.93-.4,7.75-1.17,11.48-2.52,1.8-.65,1.02-3.55-.8-2.89-3.7,1.34-7.46,2.08-11.37,2.49-1.93.2-3.79.51-5.65,1.07s-3.84,1.23-5.85,1.51c-3.95.54-8.01.5-11.99.69-4.25.2-8.51.4-12.76.6v3c.95-.06,1.89-.12,2.84-.19l-.4-2.95c-1.87.77-3.63,1.68-5.32,2.8s-.1,3.66,1.51,2.59h0Z"/>
    <path d="M934.2,199.97c5,.74,9.82-1.8,14.61-2.88,5.07-1.14,10.25-1.67,15.43-1.95s10.71-.46,16.05-.44,10.62.72,15.91,1.42c5.93.78,11.91,1.44,17.88.69,1.89-.24,1.91-3.24,0-3-10.51,1.33-20.85-1.72-31.32-2.06-5.22-.17-10.48.04-15.7.26s-10.3.6-15.38,1.47c-2.77.47-5.52,1.1-8.21,1.92s-5.59,2.11-8.48,1.68c-1.89-.28-2.7,2.61-.8,2.89h0Z"/>
    <path d="M1070.21,229.25c.15.06.13.05-.06-.03.07.03.13.06.2.09.13.06.26.12.38.19.22.12.44.24.65.38.12.08.24.16.36.24.08.05.48.27.13.09.22.12.43.36.61.53.19.18.38.38.56.58.09.11.18.22.28.33.19.23-.17-.23.06.08.32.45.6.93.84,1.43.27.57,1.11.88,1.69.69s1.16-.78,1.1-1.45c-.2-2.2-1.18-4.3-2.91-5.72-.42-.35-.9-.54-1.46-.39-.46.13-.97.55-1.05,1.05-.2,1.24-.3,2.48-.26,3.73l2.95-.4c-.72-1.9-1.43-3.81-2.15-5.71l-2.2,1.69s.46.26.46.32c0-.03-.22-.19-.04-.03.07.06.14.12.21.18.26.23.51.49.73.75.02.03.14.14.14.17-.11-.14-.13-.17-.07-.08.02.03.04.06.06.09.1.14.19.27.27.42.1.16.19.32.27.48.03.07.07.13.1.2.03.06.17.41.03.05.15.38.32.68.69.9.32.19.8.27,1.16.15.7-.23,1.36-1.07,1.05-1.85-.73-1.8-1.9-3.28-3.54-4.34-.5-.33-1.21-.23-1.67.12s-.75,1.02-.54,1.58c.72,1.9,1.43,3.81,2.15,5.71.27.71.86,1.18,1.65,1.07.71-.1,1.33-.72,1.3-1.47-.02-.54-.02-1.07.01-1.6.02-.27.04-.53.07-.8,0-.04.05-.4.02-.2-.02.11-.01.09,0-.07.01-.09.03-.18.04-.26l-2.51.66c.33.27.63.57.9.89.04.04.07.08.1.13-.11-.14-.13-.17-.07-.08.05.08.11.15.16.23.12.18.24.37.34.57.05.1.1.2.15.3.02.04.15.33.06.12s.03.09.05.13c.04.1.07.21.11.31.07.21.12.43.17.64.02.1.07.23.06.33l-.02-.18c0,.07.02.15.02.22l2.8-.76c-1.16-2.45-3.29-4.28-5.78-5.28-.73-.29-1.68.32-1.85,1.05-.2.87.27,1.53,1.05,1.85h0Z"/>
  </g>
</svg>